<?xml version="1.0" encoding="UTF-8"?>
<!DOCTYPE svg PUBLIC "-//W3C//DTD SVG 1.0//EN" "http://www.w3.org/TR/2001/REC-SVG-20010904/DTD/svg10.dtd">
<!-- Creator: CorelDRAW 2018 (64-Bit) -->
<svg xmlns="http://www.w3.org/2000/svg" xml:space="preserve" width="260.725mm" height="279.601mm" version="1.0" shape-rendering="geometricPrecision" text-rendering="geometricPrecision" image-rendering="optimizeQuality" fill-rule="evenodd" clip-rule="evenodd"
viewBox="0 0 1146.12 1229.1"
 xmlns:xlink="http://www.w3.org/1999/xlink">
 <defs>
   <mask id="id0">
     <linearGradient id="id1" gradientUnits="userSpaceOnUse" x1="468.04" y1="1259.04" x2="759.67" y2="502.83">
      <stop offset="0" stop-opacity="1" stop-color="white"/>
      <stop offset="1" stop-opacity="0" stop-color="white"/>
     </linearGradient>
    <rect fill="url(#id1)" x="288.29" y="431.11" width="858.27" height="794.85"/>
   </mask>
 </defs>
 <g id="Layer_x0020_1">
  <metadata id="CorelCorpID_0Corel-Layer"/>
  <path fill="#1A1A1A" mask="url(#id0)" d="M870.16 440.82c221.16,-41.48 332.07,60.14 247.71,226.99 -28.07,55.52 -74.24,111.26 -131.49,162.47l0.02 0c-148.56,146.6 -447.05,360.52 -511.86,395.25 -39.59,-15.15 -164.01,-149.29 -179.91,-265.05l0.03 -0.01c-12.22,-38.27 -5.86,-86.71 22.32,-142.44 84.36,-166.84 332.03,-335.72 553.19,-377.21z"/>
  <path fill="#9900CC" d="M474.54 9.3c256.94,0 465.23,208.29 465.23,465.23 0,85.5 -23.09,165.61 -63.34,234.45l0.03 0.01c-95.54,202.02 -339.83,470.71 -400.48,509.12 -60.64,-38.41 -307.38,-306.34 -402.92,-508.36l0.03 -0.01c-40.53,-69.02 -63.79,-149.39 -63.79,-235.21 0,-256.94 208.29,-465.23 465.23,-465.23z"/>
  <g id="SVGRepo_bgCarrier">
   <path fill="#1A1A1A" d="M474.56 121.67l0 0c194.85,0 352.87,158.02 352.87,352.87l0 0c0,194.85 -158.02,352.87 -352.87,352.87l0 0c-194.85,-0 -352.87,-158.02 -352.87,-352.87l-0 0c0,-194.85 158.02,-352.87 352.87,-352.87z" strokewidth="0"/>
  </g>
  <path fill="white" fill-rule="nonzero" d="M474.54 0c131.04,0 249.67,53.12 335.55,138.99 85.88,85.87 138.99,204.51 138.99,335.55 0,42.87 -5.7,84.44 -16.38,123.99 -11.02,40.8 -27.32,79.4 -48.12,115 -40.41,85.25 -106.82,182 -174.85,268.48 -94.6,120.26 -192.89,221.21 -228.81,243.96l-4.94 3.13 -4.94 -3.13c-36.03,-22.82 -135.76,-124.19 -231.39,-244.84 -68.25,-86.11 -134.7,-182.3 -174.87,-267.17 -20.89,-35.67 -37.25,-74.27 -48.29,-115.01 -10.75,-39.67 -16.49,-81.39 -16.49,-124.41 0,-131.04 53.12,-249.67 138.99,-335.55 85.87,-85.88 204.51,-138.99 335.55,-138.99zm322.39 152.15c-82.51,-82.51 -196.49,-133.54 -322.39,-133.54 -125.9,0 -239.89,51.03 -322.39,133.54 -82.51,82.51 -133.54,196.49 -133.54,322.39 0,41.42 5.51,81.52 15.84,119.62 10.67,39.38 26.47,76.61 46.61,110.92l0.29 0.49 0.11 0.24c39.48,83.49 105.17,178.53 172.73,263.77 90.31,113.94 183.45,209.91 221.79,237.35 38.1,-27.33 129.84,-122.86 219.14,-236.39 67.47,-85.78 133.25,-181.55 172.94,-265.49l0.26 -0.55 0.1 -0.17c20.05,-34.29 35.74,-71.41 46.32,-110.58 10.25,-37.97 15.72,-77.93 15.72,-119.19 0,-125.9 -51.03,-239.89 -133.54,-322.39z"/>
  <g id="SVGRepo_bgCarrier_0">
   <path fill="white" d="M474.56 335.62l0 0c76.71,0 138.92,62.21 138.92,138.92l0 0c0,76.71 -62.21,138.92 -138.92,138.92l0 0c-76.71,0 -138.92,-62.21 -138.92,-138.92l0 0c0,-76.71 62.21,-138.92 138.92,-138.92z" strokewidth="0"/>
  </g>
 </g>
</svg>
