<?xml version="1.0" encoding="UTF-8"?>
<!DOCTYPE svg PUBLIC "-//W3C//DTD SVG 1.0//EN" "http://www.w3.org/TR/2001/REC-SVG-20010904/DTD/svg10.dtd">
<!-- Creator: CorelDRAW 2018 (64-Bit) -->
<svg xmlns="http://www.w3.org/2000/svg" xml:space="preserve" width="260.725mm" height="279.601mm" version="1.0" shape-rendering="geometricPrecision" text-rendering="geometricPrecision" image-rendering="optimizeQuality" fill-rule="evenodd" clip-rule="evenodd"
viewBox="0 0 1058.58 1135.22"
 xmlns:xlink="http://www.w3.org/1999/xlink">
 <defs>
   <mask id="id0">
     <linearGradient id="id1" gradientUnits="userSpaceOnUse" x1="432.29" y1="1166.17" x2="701.64" y2="467.73">
      <stop offset="0" stop-opacity="1" stop-color="white"/>
      <stop offset="1" stop-opacity="0" stop-color="white"/>
     </linearGradient>
    <rect fill="url(#id1)" x="266.27" y="401.49" width="792.71" height="734.14"/>
   </mask>
 </defs>
 <g id="Layer_x0020_1">
  <metadata id="CorelCorpID_0Corel-Layer"/>
  <path fill="#1A1A1A" mask="url(#id0)" d="M803.69 410.46c204.27,-38.31 306.7,55.55 228.79,209.65 -25.93,51.28 -68.57,102.76 -121.45,150.06l0.02 0c-137.21,135.41 -412.9,332.98 -472.76,365.06 -36.56,-13.99 -151.48,-137.89 -166.17,-244.8l0.03 -0.01c-11.29,-35.35 -5.41,-80.09 20.61,-131.56 77.91,-154.1 306.67,-310.08 510.93,-348.39z"/>
  <path fill="#663333" d="M438.29 8.59c237.32,0 429.7,192.38 429.7,429.7 0,78.97 -21.33,152.96 -58.5,216.54l0.03 0.01c-88.24,186.59 -313.87,434.75 -369.89,470.23 -56.01,-35.48 -283.9,-282.94 -372.14,-469.53l0.03 -0.01c-37.43,-63.75 -58.92,-137.98 -58.92,-217.25 0,-237.32 192.38,-429.7 429.7,-429.7z"/>
  <g id="SVGRepo_bgCarrier">
   <path fill="#1A1A1A" d="M438.31 112.38l0 0c179.97,0 325.91,145.95 325.91,325.91l0 0c0,179.97 -145.95,325.91 -325.91,325.91l0 0c-179.97,-0 -325.91,-145.95 -325.91,-325.91l-0 0c0,-179.97 145.95,-325.91 325.91,-325.91z" strokewidth="0"/>
  </g>
  <path fill="white" fill-rule="nonzero" d="M438.29 0c121.03,0 230.6,49.06 309.92,128.37 79.32,79.32 128.37,188.89 128.37,309.92 0,39.6 -5.26,77.99 -15.13,114.52 -10.18,37.68 -25.23,73.33 -44.44,106.22 -37.32,78.74 -98.66,168.1 -161.5,247.97 -87.37,111.07 -178.16,204.32 -211.33,225.33l-4.57 2.89 -4.57 -2.89c-33.27,-21.07 -125.39,-114.71 -213.72,-226.14 -63.04,-79.53 -124.41,-168.37 -161.51,-246.76 -19.29,-32.95 -34.4,-68.6 -44.6,-106.22 -9.93,-36.64 -15.23,-75.17 -15.23,-114.91 0,-121.03 49.06,-230.6 128.37,-309.92 79.32,-79.32 188.89,-128.37 309.92,-128.37zm297.77 140.53c-76.2,-76.2 -181.48,-123.34 -297.77,-123.34 -116.29,0 -221.56,47.13 -297.77,123.34 -76.2,76.2 -123.34,181.48 -123.34,297.77 0,38.25 5.09,75.29 14.63,110.48 9.86,36.37 24.44,70.75 43.05,102.45l0.26 0.45 0.1 0.22c36.47,77.11 97.14,164.89 159.54,243.62 83.41,105.24 169.43,193.88 204.85,219.22 35.19,-25.24 119.92,-113.48 202.4,-218.33 62.32,-79.23 123.07,-167.68 159.73,-245.21l0.24 -0.51 0.09 -0.16c18.52,-31.67 33.01,-65.95 42.78,-102.13 9.47,-35.07 14.52,-71.97 14.52,-110.09 0,-116.29 -47.13,-221.56 -123.34,-297.77z"/>
  <rect fill="white" x="401.25" y="226.67" width="74.12" height="423.25" rx="13.43" ry="15.57"/>
  <rect fill="white" transform="matrix(1.32434E-14 0.862496 -0.579762 2.64845E-14 561.004 334.627)" width="85.94" height="423.25" rx="15.57" ry="15.57"/>
 </g>
</svg>
