<?xml version="1.0" encoding="UTF-8"?>
<!DOCTYPE svg PUBLIC "-//W3C//DTD SVG 1.0//EN" "http://www.w3.org/TR/2001/REC-SVG-20010904/DTD/svg10.dtd">
<!-- Creator: CorelDRAW 2018 (64-Bit) -->
<svg xmlns="http://www.w3.org/2000/svg" xml:space="preserve" width="260.725mm" height="279.601mm" version="1.0" shape-rendering="geometricPrecision" text-rendering="geometricPrecision" image-rendering="optimizeQuality" fill-rule="evenodd" clip-rule="evenodd"
viewBox="0 0 1714.59 1838.73"
 xmlns:xlink="http://www.w3.org/1999/xlink">
 <defs>
   <mask id="id0">
     <linearGradient id="id1" gradientUnits="userSpaceOnUse" x1="700.19" y1="1883.51" x2="1136.45" y2="752.23">
      <stop offset="0" stop-opacity="1" stop-color="white"/>
      <stop offset="1" stop-opacity="0" stop-color="white"/>
     </linearGradient>
    <rect fill="url(#id1)" x="431.28" y="644.94" width="1283.96" height="1189.09"/>
   </mask>
 </defs>
 <g id="Layer_x0020_1">
  <metadata id="CorelCorpID_0Corel-Layer"/>
  <path fill="#1A1A1A" mask="url(#id0)" d="M1301.75 659.47c330.86,-62.06 496.77,89.97 370.57,339.57 -41.99,83.06 -111.07,166.45 -196.71,243.05l0.03 0c-222.24,219.32 -668.78,539.33 -765.74,591.29 -59.22,-22.67 -245.35,-223.34 -269.15,-396.51l0.04 -0.02c-18.29,-57.26 -8.77,-129.72 33.38,-213.08 126.2,-249.6 496.71,-502.24 827.57,-564.3z"/>
  <path fill="#4175DF" d="M709.91 13.92c384.38,0 695.99,311.6 695.99,695.99 0,127.91 -34.54,247.75 -94.76,350.74l0.04 0.01c-142.92,302.22 -508.39,704.18 -599.11,761.64 -90.72,-57.46 -459.84,-458.28 -602.77,-760.5l0.05 -0.01c-60.63,-103.25 -95.43,-223.49 -95.43,-351.88 0,-384.38 311.6,-695.99 695.99,-695.99z"/>
  <g id="SVGRepo_bgCarrier">
   <path fill="#1A1A1A" d="M709.94 182.02l0 0c291.49,0 527.88,236.39 527.88,527.88l0 0c0,291.49 -236.39,527.88 -527.88,527.88l0 0c-291.49,-0 -527.88,-236.39 -527.88,-527.88l-0 0c0,-291.49 236.39,-527.88 527.88,-527.88z" strokewidth="0"/>
  </g>
  <path fill="white" fill-rule="nonzero" d="M709.91 0c196.03,0 373.51,79.46 501.98,207.93 128.47,128.47 207.93,305.95 207.93,501.98 0,64.13 -8.52,126.32 -24.5,185.49 -16.48,61.04 -40.87,118.77 -71.98,172.04 -60.45,127.54 -159.81,272.27 -261.58,401.64 -141.52,179.91 -288.56,330.93 -342.29,364.96l-7.39 4.68 -7.39 -4.68c-53.89,-34.14 -203.1,-185.79 -346.16,-366.28 -102.1,-128.82 -201.5,-272.71 -261.61,-399.68 -31.25,-53.36 -55.72,-111.11 -72.24,-172.05 -16.09,-59.35 -24.67,-121.75 -24.67,-186.12 0,-196.03 79.46,-373.51 207.93,-501.98 128.47,-128.47 305.95,-207.93 501.98,-207.93zm482.3 227.61c-123.43,-123.43 -293.95,-199.77 -482.3,-199.77 -188.35,0 -358.87,76.34 -482.3,199.77 -123.43,123.43 -199.77,293.95 -199.77,482.3 0,61.96 8.24,121.95 23.69,178.94 15.97,58.91 39.59,114.6 69.73,165.93l0.43 0.73 0.17 0.36c59.07,124.9 157.33,267.08 258.4,394.6 135.1,170.45 274.43,314.03 331.8,355.07 56.99,-40.88 194.24,-183.8 327.83,-353.64 100.94,-128.32 199.34,-271.6 258.72,-397.17l0.39 -0.83 0.15 -0.26c29.99,-51.3 53.47,-106.82 69.29,-165.43 15.34,-56.8 23.52,-116.58 23.52,-178.31 0,-188.35 -76.34,-358.87 -199.77,-482.3z"/>
  <path fill="white" d="M601.44 463.76c0,-14.7 11.31,-26.91 25.89,-28.16l171.65 -14.36c10.52,-0.79 19.56,7.46 19.56,18.09l0 34.6c0,9.95 -8.14,18.09 -18.09,18.09l-170.75 0c-15.6,0 -28.27,-12.66 -28.27,-28.27zm19.9 64.45l177.3 0c1.13,5.88 1.81,11.87 1.81,18.09 0,49.98 -40.48,90.46 -90.46,90.46 -49.98,0 -90.46,-40.48 -90.46,-90.46 0,-6.22 0.68,-12.21 1.81,-18.09l0 0zm257.81 411.94l-60.61 -102.45 0 124.72c0,1.47 -0.11,2.83 -0.23,4.3l-197.09 -281.45c18.77,-8.03 39.12,-12.33 60.27,-12.33l56.99 0c17.98,0 35.39,3.17 51.79,8.93l107.31 -185.67c-8.71,-4.97 -11.65,-16.06 -6.67,-24.76 4.97,-8.71 16.06,-11.65 24.76,-6.67l15.72 9.05 15.72 9.05c8.71,4.98 11.65,16.06 6.67,24.76l-62.87 108.67 1.81 1.02c17.3,9.95 23.29,32.11 13.23,49.41l-41.5 71.8c2.26,3.17 4.41,6.56 6.45,9.95l86.05 145.64c12.66,21.48 5.54,49.19 -15.94,61.97 -21.48,12.78 -49.19,5.54 -61.97,-15.94l0.11 0zm-96.79 58.46l-144.74 0c-20.01,0 -36.18,-16.17 -36.18,-36.18l0 -124.72 -60.61 102.45c-12.66,21.48 -40.48,28.61 -61.97,15.94 -21.48,-12.66 -28.61,-40.48 -15.94,-61.97l86.05 -145.64c10.63,-17.87 24.54,-33.13 40.71,-45.23l205.23 293.09c-3.96,1.47 -8.14,2.26 -12.55,2.26zm-27.14 -217.11c14.99,-0 27.14,-12.15 27.14,-27.14 0,-14.99 -12.15,-27.14 -27.14,-27.14 -14.99,0 -27.14,12.15 -27.14,27.14 0,14.99 12.15,27.14 27.14,27.14l0 0z"/>
 </g>
</svg>
