<?xml version="1.0" encoding="UTF-8"?>
<!DOCTYPE svg PUBLIC "-//W3C//DTD SVG 1.0//EN" "http://www.w3.org/TR/2001/REC-SVG-20010904/DTD/svg10.dtd">
<!-- Creator: CorelDRAW 2018 (64-Bit) -->
<svg xmlns="http://www.w3.org/2000/svg" xml:space="preserve" width="261.053mm" height="279.601mm" version="1.0" shape-rendering="geometricPrecision" text-rendering="geometricPrecision" image-rendering="optimizeQuality" fill-rule="evenodd" clip-rule="evenodd"
viewBox="0 0 2256.07 2416.37"
 xmlns:xlink="http://www.w3.org/1999/xlink">
 <defs>
   <mask id="id0">
     <linearGradient id="id1" gradientUnits="userSpaceOnUse" x1="922.99" y1="2475.22" x2="1496.31" y2="988.54">
      <stop offset="0" stop-opacity="1" stop-color="white"/>
      <stop offset="1" stop-opacity="0" stop-color="white"/>
     </linearGradient>
    <rect fill="url(#id1)" x="569.61" y="847.55" width="1687.33" height="1562.65"/>
   </mask>
 </defs>
 <g id="Layer_x0020_1">
  <metadata id="CorelCorpID_0Corel-Layer"/>
  <path fill="#1A1A1A" mask="url(#id0)" d="M1713.53 866.64c434.8,-81.55 652.83,118.24 486.99,446.25 -55.19,109.15 -145.96,218.74 -258.51,319.4l0.04 0c-292.06,288.22 -878.88,708.76 -1006.29,777.04 -77.83,-29.79 -322.43,-293.5 -353.71,-521.08l0.06 -0.02c-24.03,-75.24 -11.52,-170.47 43.87,-280.02 165.84,-328.01 652.75,-660.02 1087.55,-741.57z"/>
  <path fill="#F03800" d="M932.93 18.29c505.14,0 914.63,409.5 914.63,914.63 0,168.1 -45.39,325.58 -124.52,460.92l0.05 0.02c-187.82,397.16 -668.1,925.4 -787.32,1000.91 -119.22,-75.52 -604.3,-602.25 -792.13,-999.41l0.06 -0.02c-79.67,-135.69 -125.41,-293.7 -125.41,-462.42 0,-505.14 409.5,-914.63 914.63,-914.63z"/>
  <g id="SVGRepo_bgCarrier">
   <path fill="#1A1A1A" d="M932.97 239.21l0 0c383.07,0 693.72,310.65 693.72,693.72l0 0c0,383.07 -310.65,693.72 -693.72,693.72l0 0c-383.06,-0 -693.72,-310.65 -693.72,-693.72l-0 0c0,-383.07 310.66,-693.72 693.72,-693.72z" strokewidth="0"/>
  </g>
  <path fill="white" fill-rule="nonzero" d="M932.93 0c257.62,0 490.85,104.42 659.68,273.25 168.83,168.83 273.25,402.06 273.25,659.68 0,84.28 -11.2,166.01 -32.2,243.76 -21.66,80.21 -53.71,156.09 -94.59,226.09 -79.44,167.61 -210.01,357.8 -343.75,527.82 -185.97,236.43 -379.22,434.9 -449.82,479.62l-9.72 6.16 -9.72 -6.16c-70.82,-44.86 -266.9,-244.16 -454.9,-481.35 -134.18,-169.29 -264.81,-358.39 -343.79,-525.24 -41.06,-70.13 -73.22,-146.01 -94.93,-226.1 -21.14,-78 -32.42,-160 -32.42,-244.59 0,-257.62 104.42,-490.85 273.25,-659.68 168.83,-168.83 402.06,-273.25 659.68,-273.25zm633.81 299.12c-162.2,-162.2 -386.29,-262.53 -633.81,-262.53 -247.52,0 -471.61,100.33 -633.81,262.53 -162.2,162.2 -262.53,386.29 -262.53,633.81 0,81.42 10.83,160.26 31.14,235.16 20.98,77.42 52.03,150.61 91.64,218.06l0.56 0.96 0.22 0.47c77.62,164.13 206.76,350.98 339.58,518.56 177.54,224 360.65,412.68 436.03,466.61 74.9,-53.72 255.26,-241.54 430.82,-464.73 132.65,-168.64 261.96,-356.92 340,-521.94l0.52 -1.09 0.2 -0.34c39.41,-67.42 70.26,-140.38 91.06,-217.4 20.16,-74.64 30.91,-153.2 30.91,-234.33 0,-247.52 -100.33,-471.61 -262.53,-633.81z"/>
  <g id="_1606520267520">
   <g id="SVGRepo_bgCarrier_0">
   </g>
   <g id="SVGRepo_tracerCarrier">
   </g>
   <g id="SVGRepo_iconCarrier">
    <g>
     <path fill="white" d="M1100.87 765.02l0 -198.45 -335.81 0 0 198.45 -198.45 0 0 534.26 297.66 0 0 -208.31 137.38 0 0 208.31 297.66 0 0 -534.26 -198.45 0zm-346.12 394.28l-57.33 0 0 -68.36 57.33 0 0 68.36zm0 -151.69l-57.33 0 0 -68.36 57.33 0 0 68.36zm206.88 0l-57.33 0 0 -68.36 57.33 0 0 68.36zm61 -225.21l-57.64 0 0 57.65 -64.04 0 0 -57.65 -57.64 0 0 -64.06 57.64 0 0 -57.67 64.04 0 0 57.67 57.64 0 0 64.06zm88.44 156.86l53.76 0 0 68.36 -53.76 0 0 -68.36zm57.44 220.05l-57.33 0 0 -68.36 57.33 0 0 68.36z"/>
    </g>
   </g>
  </g>
 </g>
</svg>
