<?xml version="1.0" encoding="UTF-8"?>
<!DOCTYPE svg PUBLIC "-//W3C//DTD SVG 1.0//EN" "http://www.w3.org/TR/2001/REC-SVG-20010904/DTD/svg10.dtd">
<!-- Creator: CorelDRAW 2018 (64-Bit) -->
<svg xmlns="http://www.w3.org/2000/svg" xml:space="preserve" width="260.725mm" height="279.601mm" version="1.0" shape-rendering="geometricPrecision" text-rendering="geometricPrecision" image-rendering="optimizeQuality" fill-rule="evenodd" clip-rule="evenodd"
viewBox="0 0 981.74 1052.82"
 xmlns:xlink="http://www.w3.org/1999/xlink">
 <defs>
   <mask id="id0">
     <linearGradient id="id1" gradientUnits="userSpaceOnUse" x1="400.91" y1="1078.46" x2="650.71" y2="430.71">
      <stop offset="0" stop-opacity="1" stop-color="white"/>
      <stop offset="1" stop-opacity="0" stop-color="white"/>
     </linearGradient>
    <rect fill="url(#id1)" x="246.95" y="369.28" width="735.18" height="680.85"/>
   </mask>
 </defs>
 <g id="Layer_x0020_1">
  <metadata id="CorelCorpID_0Corel-Layer"/>
  <path fill="#1A1A1A" mask="url(#id0)" d="M745.36 377.6c189.44,-35.53 284.44,51.52 212.18,194.43 -24.05,47.56 -63.6,95.3 -112.63,139.16l0.02 0c-127.25,125.58 -382.93,308.81 -438.45,338.56 -33.91,-12.98 -140.48,-127.88 -154.11,-227.04l0.03 -0.01c-10.47,-32.78 -5.02,-74.27 19.11,-122.01 72.26,-142.91 284.41,-287.57 473.85,-323.11z"/>
  <path fill="#663333" d="M406.48 7.97c220.09,0 398.51,178.42 398.51,398.51 0,73.24 -19.78,141.85 -54.26,200.83l0.02 0.01c-81.83,173.05 -291.09,403.2 -343.04,436.1 -51.95,-32.9 -263.3,-262.4 -345.13,-435.45l0.03 -0.01c-34.71,-59.12 -54.64,-127.97 -54.64,-201.48 0,-220.09 178.42,-398.51 398.51,-398.51z"/>
  <g id="SVGRepo_bgCarrier">
   <path fill="#1A1A1A" d="M406.5 104.22l0 0c166.9,0 302.26,135.35 302.26,302.26l0 0c0,166.9 -135.35,302.26 -302.26,302.26l0 0c-166.9,-0 -302.26,-135.35 -302.26,-302.26l-0 0c0,-166.9 135.35,-302.26 302.26,-302.26z" strokewidth="0"/>
  </g>
  <path fill="white" fill-rule="nonzero" d="M406.48 0c112.24,0 213.87,45.5 287.42,119.06 73.56,73.56 119.06,175.18 119.06,287.42 0,36.72 -4.88,72.33 -14.03,106.21 -9.44,34.95 -23.4,68.01 -41.22,98.51 -34.61,73.03 -91.5,155.89 -149.77,229.97 -81.03,103.01 -165.23,189.49 -195.99,208.97l-4.23 2.68 -4.23 -2.68c-30.86,-19.55 -116.29,-106.38 -198.2,-209.73 -58.46,-73.76 -115.38,-156.15 -149.79,-228.85 -17.89,-30.55 -31.9,-63.62 -41.36,-98.51 -9.21,-33.98 -14.13,-69.71 -14.13,-106.57 0,-112.24 45.5,-213.87 119.06,-287.42 73.56,-73.56 175.18,-119.06 287.42,-119.06zm276.15 130.33c-70.67,-70.67 -168.31,-114.39 -276.15,-114.39 -107.85,0 -205.48,43.71 -276.15,114.39 -70.67,70.67 -114.39,168.31 -114.39,276.15 0,35.48 4.72,69.83 13.57,102.46 9.14,33.73 22.67,65.62 39.93,95.01l0.25 0.42 0.1 0.2c33.82,71.51 90.09,152.92 147.96,225.94 77.36,97.6 157.14,179.81 189.98,203.31 32.63,-23.41 111.22,-105.24 187.71,-202.49 57.8,-73.48 114.14,-155.51 148.14,-227.41l0.22 -0.47 0.09 -0.15c17.17,-29.37 30.61,-61.16 39.68,-94.72 8.78,-32.52 13.47,-66.75 13.47,-102.1 0,-107.85 -43.71,-205.48 -114.39,-276.15z"/>
  <path fill="white" d="M452.7 258.63c2.89,0 5.66,1.39 7.39,3.7 20.04,26.74 45.11,43.26 77.1,64.4l0 0 0 0c3,1.96 6.06,4.04 9.24,6.12 16.69,11.09 26.39,29.86 26.39,49.73 0,16.52 -6.53,31.48 -17.21,42.39l-205.84 0c-10.63,-10.97 -17.21,-25.93 -17.21,-42.39 0,-19.87 9.65,-38.64 26.39,-49.73 3.12,-2.08 6.24,-4.1 9.24,-6.12l0 0 0 0c32,-21.14 57.06,-37.66 77.1,-64.4 1.73,-2.31 4.5,-3.7 7.39,-3.7zm-64.69 295.7l0 -41.58c0,-7.68 -6.18,-13.86 -13.86,-13.86 -7.68,0 -13.86,6.18 -13.86,13.86l0 41.58 -27.72 0c-10.22,0 -18.48,-8.26 -18.48,-18.48l0 -73.93c0,-10.22 8.26,-18.48 18.48,-18.48l240.26 0c10.22,0 18.48,8.26 18.48,18.48l0 73.93c0,10.22 -8.26,18.48 -18.48,18.48l-27.72 0 0 -41.58c0,-7.68 -6.18,-13.86 -13.86,-13.86 -7.68,0 -13.86,6.18 -13.86,13.86l0 41.58 -36.96 0 0 -33.5c0,-10.97 -4.85,-21.37 -13.28,-28.42l-14.44 -12.01 -14.44 12.01c-8.43,7.05 -13.28,17.44 -13.28,28.42l0 33.5 -36.96 0zm-125.67 -292.7c3.29,-2.48 7.8,-2.48 11.09,0l9.24 6.93c19.75,14.84 31.42,38.12 31.42,62.84l0 1.15 -92.41 0 0 -1.15c0,-24.72 11.67,-47.99 31.42,-62.84l9.24 -6.93zm-40.66 89.4l92.41 0 0 78.89c-11.03,6.41 -18.48,18.31 -18.48,32l0 73.93c0,5.54 1.21,10.74 3.35,15.48 -3.81,1.96 -8.09,3 -12.59,3l-36.96 0c-15.31,0 -27.72,-12.42 -27.72,-27.72l0 -166.33 0 -9.24z"/>
 </g>
</svg>
