<?xml version="1.0" encoding="UTF-8"?>
<!DOCTYPE svg PUBLIC "-//W3C//DTD SVG 1.0//EN" "http://www.w3.org/TR/2001/REC-SVG-20010904/DTD/svg10.dtd">
<!-- Creator: CorelDRAW 2018 (64-Bit) -->
<svg xmlns="http://www.w3.org/2000/svg" xml:space="preserve" width="260.725mm" height="279.601mm" version="1.0" shape-rendering="geometricPrecision" text-rendering="geometricPrecision" image-rendering="optimizeQuality" fill-rule="evenodd" clip-rule="evenodd"
viewBox="0 0 1532.19 1643.12"
 xmlns:xlink="http://www.w3.org/1999/xlink">
 <defs>
   <mask id="id0">
     <linearGradient id="id1" gradientUnits="userSpaceOnUse" x1="625.7" y1="1687.92" x2="1015.56" y2="676.99">
      <stop offset="0" stop-opacity="1" stop-color="white"/>
      <stop offset="1" stop-opacity="0" stop-color="white"/>
     </linearGradient>
    <rect fill="url(#id1)" x="385.41" y="581.12" width="1147.37" height="1062.59"/>
   </mask>
 </defs>
 <g id="Layer_x0020_1">
  <metadata id="CorelCorpID_0Corel-Layer"/>
  <path fill="#1A1A1A" mask="url(#id0)" d="M1163.27 594.1c295.66,-55.45 443.92,80.4 331.15,303.45 -37.53,74.22 -99.25,148.74 -175.79,217.19l0.03 0c-198.6,195.99 -597.63,481.95 -684.28,528.39 -52.92,-20.26 -219.25,-199.58 -240.52,-354.33l0.04 -0.01c-16.34,-51.17 -7.83,-115.92 29.83,-190.42 112.77,-223.04 443.87,-448.81 739.53,-504.27z"/>
  <path fill="#FFB229" d="M634.39 12.44c343.49,0 621.95,278.46 621.95,621.95 0,114.31 -30.87,221.39 -84.68,313.43l0.04 0.01c-127.72,270.07 -454.3,629.27 -535.38,680.62 -81.07,-51.35 -410.92,-409.53 -538.64,-679.6l0.04 -0.01c-54.18,-92.27 -85.28,-199.72 -85.28,-314.44 0,-343.49 278.46,-621.95 621.95,-621.95z"/>
  <g id="SVGRepo_bgCarrier">
   <path fill="#1A1A1A" d="M634.41 162.66l0 0c260.48,0 471.73,211.24 471.73,471.73l0 0c0,260.48 -211.24,471.73 -471.73,471.73l0 0c-260.48,-0 -471.73,-211.24 -471.73,-471.73l-0 0c0,-260.48 211.24,-471.73 471.73,-471.73z" strokewidth="0"/>
  </g>
  <path fill="white" fill-rule="nonzero" d="M634.39 0c175.18,0 333.78,71.01 448.58,185.81 114.8,114.8 185.81,273.4 185.81,448.58 0,57.31 -7.62,112.88 -21.89,165.75 -14.73,54.54 -36.52,106.14 -64.32,153.74 -54.02,113.97 -142.81,243.3 -233.75,358.92 -126.46,160.77 -257.87,295.73 -305.88,326.14l-6.61 4.19 -6.61 -4.19c-48.16,-30.5 -181.49,-166.03 -309.33,-327.32 -91.24,-115.12 -180.07,-243.7 -233.78,-357.16 -27.92,-47.69 -49.79,-99.29 -64.55,-153.75 -14.38,-53.04 -22.05,-108.8 -22.05,-166.32 0,-175.18 71.01,-333.78 185.81,-448.58 114.8,-114.8 273.4,-185.81 448.58,-185.81zm430.99 203.4c-110.3,-110.3 -262.68,-178.52 -430.99,-178.52 -168.31,0 -320.69,68.22 -430.99,178.52 -110.3,110.3 -178.52,262.68 -178.52,430.99 0,55.37 7.37,108.98 21.17,159.91 14.27,52.64 35.38,102.41 62.31,148.28l0.38 0.65 0.15 0.32c52.78,111.61 140.59,238.66 230.91,352.62 120.73,152.32 245.24,280.62 296.5,317.29 50.93,-36.53 173.58,-164.25 292.96,-316.02 90.2,-114.67 178.13,-242.7 231.2,-354.92l0.35 -0.74 0.14 -0.23c26.8,-45.84 47.78,-95.46 61.92,-147.83 13.71,-50.76 21.02,-104.18 21.02,-159.34 0,-168.31 -68.22,-320.69 -178.52,-430.99z"/>
  <path fill="white" d="M447.12 405.79c-23.66,0 -42.86,19.2 -42.86,42.86l0 371.46c0,23.66 19.2,42.86 42.86,42.86l85.72 0 0 -71.44c0,-23.66 19.2,-42.86 42.86,-42.86 23.66,0 42.86,19.2 42.86,42.86l0 71.44 85.72 0c23.66,0 42.86,-19.2 42.86,-42.86l0 -371.46c0,-23.66 -19.2,-42.86 -42.86,-42.86l-257.17 0zm14.29 214.31c0,-7.86 6.43,-14.29 14.29,-14.29l28.57 0c7.86,0 14.29,6.43 14.29,14.29l0 28.57c0,7.86 -6.43,14.29 -14.29,14.29l-28.57 0c-7.86,0 -14.29,-6.43 -14.29,-14.29l0 -28.57zm100.01 -14.29l28.57 0c7.86,0 14.29,6.43 14.29,14.29l0 28.57c0,7.86 -6.43,14.29 -14.29,14.29l-28.57 0c-7.86,0 -14.29,-6.43 -14.29,-14.29l0 -28.57c0,-7.86 6.43,-14.29 14.29,-14.29zm71.44 14.29c0,-7.86 6.43,-14.29 14.29,-14.29l28.57 0c7.86,0 14.29,6.43 14.29,14.29l0 28.57c0,7.86 -6.43,14.29 -14.29,14.29l-28.57 0c-7.86,0 -14.29,-6.43 -14.29,-14.29l0 -28.57zm-157.16 -128.58l28.57 0c7.86,0 14.29,6.43 14.29,14.29l0 28.57c0,7.86 -6.43,14.29 -14.29,14.29l-28.57 0c-7.86,0 -14.29,-6.43 -14.29,-14.29l0 -28.57c0,-7.86 6.43,-14.29 14.29,-14.29zm71.44 14.29c0,-7.86 6.43,-14.29 14.29,-14.29l28.57 0c7.86,0 14.29,6.43 14.29,14.29l0 28.57c0,7.86 -6.43,14.29 -14.29,14.29l-28.57 0c-7.86,0 -14.29,-6.43 -14.29,-14.29l0 -28.57zm100.01 -14.29l28.57 0c7.86,0 14.29,6.43 14.29,14.29l0 28.57c0,7.86 -6.43,14.29 -14.29,14.29l-28.57 0c-7.86,0 -14.29,-6.43 -14.29,-14.29l0 -28.57c0,-7.86 6.43,-14.29 14.29,-14.29zm157.16 -85.72c-15.81,0 -28.57,12.77 -28.57,28.57l0 428.61 57.15 0 0 -285.74 128.58 0c7.86,0 14.29,-6.43 14.29,-14.29l0 -114.3c0,-7.86 -6.43,-14.29 -14.29,-14.29l-128.58 0c0,-15.81 -12.77,-28.57 -28.57,-28.57z"/>
 </g>
</svg>
