<?xml version="1.0" encoding="UTF-8"?>
<!DOCTYPE svg PUBLIC "-//W3C//DTD SVG 1.0//EN" "http://www.w3.org/TR/2001/REC-SVG-20010904/DTD/svg10.dtd">
<!-- Creator: CorelDRAW 2018 (64-Bit) -->
<svg xmlns="http://www.w3.org/2000/svg" xml:space="preserve" width="260.725mm" height="279.601mm" version="1.0" shape-rendering="geometricPrecision" text-rendering="geometricPrecision" image-rendering="optimizeQuality" fill-rule="evenodd" clip-rule="evenodd"
viewBox="0 0 1379.82 1479.72"
 xmlns:xlink="http://www.w3.org/1999/xlink">
 <defs>
   <mask id="id0">
     <linearGradient id="id1" gradientUnits="userSpaceOnUse" x1="563.47" y1="1515.75" x2="914.56" y2="605.36">
      <stop offset="0" stop-opacity="1" stop-color="white"/>
      <stop offset="1" stop-opacity="0" stop-color="white"/>
     </linearGradient>
    <rect fill="url(#id1)" x="347.08" y="519.02" width="1033.27" height="956.92"/>
   </mask>
 </defs>
 <g id="Layer_x0020_1">
  <metadata id="CorelCorpID_0Corel-Layer"/>
  <path fill="#1A1A1A" mask="url(#id0)" d="M1047.58 530.71c266.26,-49.94 399.77,72.41 298.22,273.27 -33.8,66.84 -89.38,133.95 -158.3,195.59l0.03 0c-178.85,176.5 -538.2,434.02 -616.23,475.84 -47.66,-18.24 -197.45,-179.73 -216.6,-319.09l0.04 -0.01c-14.72,-46.08 -7.06,-104.39 26.87,-171.48 101.56,-200.86 399.73,-404.18 665.98,-454.12z"/>
  <path fill="#666666" d="M571.3 11.2c309.33,0 560.09,250.76 560.09,560.09 0,102.94 -27.8,199.37 -76.25,282.26l0.03 0.01c-115.02,243.21 -409.12,566.69 -482.13,612.93 -73.01,-46.24 -370.06,-368.8 -485.08,-612.01l0.04 -0.01c-48.79,-83.09 -76.8,-179.85 -76.8,-283.17 0,-309.33 250.76,-560.09 560.09,-560.09z"/>
  <g id="SVGRepo_bgCarrier">
   <path fill="#1A1A1A" d="M571.32 146.48l0 0c234.58,0 424.81,190.24 424.81,424.81l0 0c0,234.58 -190.24,424.81 -424.81,424.81l0 0c-234.58,-0 -424.81,-190.24 -424.81,-424.81l-0 0c0,-234.58 190.24,-424.81 424.81,-424.81z" strokewidth="0"/>
  </g>
  <path fill="white" fill-rule="nonzero" d="M571.3 0c157.76,0 300.58,63.95 403.97,167.33 103.38,103.38 167.33,246.21 167.33,403.97 0,51.61 -6.86,101.66 -19.72,149.27 -13.26,49.12 -32.89,95.58 -57.93,138.45 -48.65,102.64 -128.61,219.11 -210.5,323.22 -113.89,144.78 -232.22,266.32 -275.46,293.7l-5.95 3.77 -5.95 -3.77c-43.37,-27.47 -163.44,-149.51 -278.57,-294.77 -82.17,-103.67 -162.16,-219.47 -210.53,-321.64 -25.15,-42.94 -44.84,-89.41 -58.13,-138.46 -12.95,-47.76 -19.85,-97.98 -19.85,-149.78 0,-157.76 63.95,-300.58 167.33,-403.97 103.38,-103.38 246.21,-167.33 403.97,-167.33zm388.13 183.17c-99.33,-99.33 -236.55,-160.77 -388.13,-160.77 -151.57,0 -288.8,61.44 -388.13,160.77 -99.33,99.33 -160.77,236.55 -160.77,388.13 0,49.86 6.63,98.14 19.07,144.01 12.85,47.41 31.86,92.23 56.12,133.54l0.34 0.59 0.14 0.29c47.53,100.51 126.61,214.93 207.95,317.55 108.72,137.17 220.85,252.71 267.01,285.74 45.86,-32.9 156.31,-147.91 263.82,-284.59 81.23,-103.27 160.42,-218.57 208.21,-319.62l0.32 -0.67 0.12 -0.21c24.14,-41.28 43.03,-85.97 55.76,-133.13 12.34,-45.71 18.93,-93.82 18.93,-143.49 0,-151.57 -61.44,-288.8 -160.77,-388.13z"/>
  <g id="_1606416909264">
   <path fill="white" d="M585.41 372.96c-8.55,-5.7 -19.63,-5.7 -28.18,0l-107.56 71.71 -93.63 0c-20.97,0 -37.99,17.02 -37.99,37.99l0 253.27c0,20.97 17.02,37.99 37.99,37.99l430.55 0c20.97,0 37.99,-17.02 37.99,-37.99l0 -253.27c0,-20.97 -17.02,-37.99 -37.99,-37.99l-93.63 0 -107.56 -71.71zm-64.74 324.97c0,-27.94 22.72,-50.65 50.65,-50.65 27.94,0 50.65,22.71 50.65,50.65l0 75.98 -101.31 0 0 -75.98zm-126.63 -177.29l25.33 0c6.96,0 12.66,5.7 12.66,12.66l0 50.65c0,6.96 -5.7,12.66 -12.66,12.66l-25.33 0c-6.96,0 -12.66,-5.7 -12.66,-12.66l0 -50.65c0,-6.97 5.7,-12.66 12.66,-12.66zm316.58 12.66c0,-17.23 26,-12.66 37.99,-12.66 6.97,0 12.66,5.7 12.66,12.66l0 50.65c0,6.96 -5.7,12.66 -12.66,12.66l-25.33 0c-6.97,0 -12.66,-5.7 -12.66,-12.66l0 -50.65zm-316.58 88.64l25.33 0c6.96,0 12.66,5.7 12.66,12.66l0 50.65c0,6.97 -5.7,12.66 -12.66,12.66l-25.33 0c-6.96,0 -12.66,-5.7 -12.66,-12.66l0 -50.65c0,-6.97 5.7,-12.66 12.66,-12.66zm316.58 12.66c0,-6.97 5.7,-12.66 12.66,-12.66l25.33 0c6.97,0 12.66,5.7 12.66,12.66l0 50.65c0,6.97 -5.7,12.66 -12.66,12.66l-25.33 0c-6.97,0 -12.66,-5.7 -12.66,-12.66l0 -50.65zm-208.95 -126.63c0,-38.46 31.19,-69.65 69.65,-69.65 38.46,0 69.65,31.19 69.65,69.65 0,38.46 -31.19,69.65 -69.65,69.65 -38.46,0 -69.65,-31.19 -69.65,-69.65l0 0z"/>
   <rect fill="white" x="561.57" y="462.66" width="16.45" height="48.66"/>
   <polygon fill="white" points="558.22,545.95 543.94,537.79 563.74,503.15 578.03,511.31 "/>
  </g>
 </g>
</svg>
