<?xml version="1.0" encoding="UTF-8"?>
<!DOCTYPE svg PUBLIC "-//W3C//DTD SVG 1.0//EN" "http://www.w3.org/TR/2001/REC-SVG-20010904/DTD/svg10.dtd">
<!-- Creator: CorelDRAW 2018 (64-Bit) -->
<svg xmlns="http://www.w3.org/2000/svg" xml:space="preserve" width="261.055mm" height="279.601mm" version="1.0" shape-rendering="geometricPrecision" text-rendering="geometricPrecision" image-rendering="optimizeQuality" fill-rule="evenodd" clip-rule="evenodd"
viewBox="0 0 1951.23 2089.85"
 xmlns:xlink="http://www.w3.org/1999/xlink">
 <defs>
   <mask id="id0">
     <linearGradient id="id1" gradientUnits="userSpaceOnUse" x1="798.28" y1="2146.83" x2="1294.13" y2="861.05">
      <stop offset="0" stop-opacity="1" stop-color="white"/>
      <stop offset="1" stop-opacity="0" stop-color="white"/>
     </linearGradient>
    <rect fill="url(#id1)" x="492.66" y="739.11" width="1459.32" height="1351.49"/>
   </mask>
 </defs>
 <g id="Layer_x0020_1">
  <metadata id="CorelCorpID_0Corel-Layer"/>
  <path fill="#1A1A1A" mask="url(#id0)" d="M1482 755.62c376.04,-70.53 564.61,102.26 421.18,385.95 -47.73,94.4 -126.24,189.18 -223.58,276.24l0.04 0c-252.59,249.27 -760.12,612.99 -870.31,672.04 -67.31,-25.76 -278.86,-253.84 -305.91,-450.66l0.05 -0.02c-20.78,-65.08 -9.96,-147.43 37.94,-242.18 143.43,-283.68 564.55,-570.83 940.59,-641.36z"/>
  <path fill="#00A66C" d="M806.86 15.82c436.88,0 791.04,354.16 791.04,791.04 0,145.38 -39.26,281.58 -107.7,398.64l0.05 0.01c-162.44,343.49 -577.82,800.35 -680.93,865.66 -103.11,-65.31 -522.65,-520.87 -685.09,-864.36l0.05 -0.02c-68.91,-117.35 -108.46,-254.01 -108.46,-399.94 0,-436.88 354.16,-791.04 791.04,-791.04z"/>
  <g id="SVGRepo_bgCarrier">
   <path fill="#1A1A1A" d="M806.9 206.88l0 0c331.3,0 599.98,268.68 599.98,599.98l0 0c0,331.3 -268.68,599.98 -599.98,599.98l0 0c-331.3,-0 -599.98,-268.68 -599.98,-599.98l-0 0c0,-331.3 268.68,-599.98 599.98,-599.98z" strokewidth="0"/>
  </g>
  <path fill="white" d="M806.9 462.48c19.22,0 37.05,9.84 47.35,26.14l333.01 531.03c8.61,13.68 13.22,29.52 13.22,45.66 0,47.51 -38.44,85.94 -85.94,85.94l-615.28 0c-47.51,0 -85.94,-38.44 -85.94,-85.94 0,-16.14 4.61,-31.98 13.22,-45.66l333.01 -531.03c10.15,-16.3 28.14,-26.14 47.35,-26.14zm99.93 295.19l-99.93 -159.28 -121.61 193.87 28.14 37.51c9.84,13.07 29.52,13.07 39.36,0l39.36 -52.43c9.22,-12.45 23.83,-19.68 39.36,-19.68l75.33 0z"/>
  <path fill="white" fill-rule="nonzero" d="M806.86 0c222.81,0 424.52,90.31 570.53,236.33 146.01,146.01 236.33,347.73 236.33,570.53 0,72.89 -9.69,143.57 -27.85,210.82 -18.73,69.37 -46.45,135 -81.81,195.54 -68.71,144.96 -181.63,309.45 -297.3,456.5 -160.84,204.48 -327.97,376.13 -389.04,414.81l-8.4 5.32 -8.4 -5.32c-61.25,-38.8 -230.84,-211.16 -393.43,-416.31 -116.05,-146.41 -229.02,-309.96 -297.33,-454.27 -35.51,-60.65 -63.33,-126.28 -82.1,-195.55 -18.28,-67.46 -28.04,-138.38 -28.04,-211.54 0,-222.81 90.31,-424.52 236.33,-570.53 146.01,-146.01 347.73,-236.33 570.53,-236.33zm548.16 258.7c-140.29,-140.29 -334.09,-227.05 -548.16,-227.05 -214.07,0 -407.88,86.77 -548.16,227.05 -140.29,140.28 -227.05,334.09 -227.05,548.16 0,70.42 9.37,138.61 26.93,203.38 18.15,66.96 45,130.25 79.26,188.6l0.49 0.83 0.19 0.41c67.13,141.96 178.82,303.55 293.69,448.49 153.55,193.73 311.92,356.92 377.11,403.56 64.78,-46.46 220.77,-208.9 372.61,-401.93 114.73,-145.85 226.56,-308.69 294.06,-451.41l0.45 -0.94 0.17 -0.29c34.09,-58.31 60.77,-121.41 78.76,-188.02 17.43,-64.56 26.73,-132.5 26.73,-202.66 0,-214.07 -86.77,-407.88 -227.05,-548.16z"/>
 </g>
</svg>
