<!DOCTYPE svg PUBLIC "-//W3C//DTD SVG 1.1//EN" "http://www.w3.org/Graphics/SVG/1.1/DTD/svg11.dtd">
<!-- Uploaded to: SVG Repo, www.svgrepo.com, Transformed by: SVG Repo Mixer Tools -->
<svg width="800px" height="800px" viewBox="-224 -224 1248.00 1248.00" enable-background="new 0 0 800 800" id="GUIDE" version="1.1" xml:space="preserve" xmlns="http://www.w3.org/2000/svg" xmlns:cc="http://creativecommons.org/ns#" xmlns:dc="http://purl.org/dc/elements/1.1/" xmlns:inkscape="http://www.inkscape.org/namespaces/inkscape" xmlns:rdf="http://www.w3.org/1999/02/22-rdf-syntax-ns#" xmlns:sodipodi="http://sodipodi.sourceforge.net/DTD/sodipodi-0.dtd" xmlns:svg="http://www.w3.org/2000/svg" xmlns:xlink="http://www.w3.org/1999/xlink" fill="#ffffff" stroke="#ffffff">
<g id="SVGRepo_bgCarrier" stroke-width="0" transform="translate(0,0), scale(1)">
<rect x="-224" y="-224" width="1248.00" height="1248.00" rx="624" fill="#000000" strokewidth="0"/>
</g>
<g id="SVGRepo_tracerCarrier" stroke-linecap="round" stroke-linejoin="round"/>
<g id="SVGRepo_iconCarrier"> <g> <path d="M295.397,498.747c0-11.046-8.954-20-20-20h-43.591c-11.045,0-20,8.954-20,20s8.955,20,20,20h23.591v23.59 c0,11.046,8.954,20,20,20s20-8.954,20-20V498.747z"/> <path d="M189.232,498.747c0-11.046-8.954-20-20-20h-43.592c-11.045,0-20,8.954-20,20s8.955,20,20,20h23.592v23.59 c0,11.046,8.954,20,20,20s20-8.954,20-20V498.747z"/> <path d="M275.397,672.842c11.046,0,20-8.954,20-20v-43.59c0-11.046-8.954-20-20-20h-43.591c-11.045,0-20,8.954-20,20 s8.955,20,20,20h23.591v23.59C255.397,663.888,264.352,672.842,275.397,672.842z"/> <path d="M169.232,672.842c11.046,0,20-8.954,20-20v-43.59c0-11.046-8.954-20-20-20h-43.592c-11.045,0-20,8.954-20,20 s8.955,20,20,20h23.592v23.59C149.232,663.888,158.187,672.842,169.232,672.842z"/> <path d="M568.193,478.747h-43.591c-11.047,0-20,8.954-20,20v43.59c0,11.046,8.953,20,20,20c11.046,0,20-8.954,20-20v-23.59h23.591 c11.046,0,20-8.954,20-20S579.239,478.747,568.193,478.747z"/> <path d="M674.358,478.747h-43.591c-11.046,0-20,8.954-20,20v43.59c0,11.046,8.954,20,20,20s20-8.954,20-20v-23.59h23.591 c11.046,0,20-8.954,20-20S685.404,478.747,674.358,478.747z"/> <path d="M568.193,589.252h-43.591c-11.047,0-20,8.954-20,20v43.59c0,11.046,8.953,20,20,20c11.046,0,20-8.954,20-20v-23.59h23.591 c11.046,0,20-8.954,20-20S579.239,589.252,568.193,589.252z"/> <path d="M674.358,589.252h-43.591c-11.046,0-20,8.954-20,20v43.59c0,11.046,8.954,20,20,20s20-8.954,20-20v-23.59h23.591 c11.046,0,20-8.954,20-20S685.404,589.252,674.358,589.252z"/> <path d="M312.753,395.015c0,48.108,39.138,87.247,87.247,87.247c48.108,0,87.248-39.139,87.248-87.247s-39.14-87.248-87.248-87.248 C351.891,307.767,312.753,346.906,312.753,395.015z M447.248,395.015c0,26.052-21.195,47.247-47.248,47.247 c-26.052,0-47.247-21.195-47.247-47.247c0-26.053,21.195-47.248,47.247-47.248C426.053,347.767,447.248,368.962,447.248,395.015z"/> <path d="M745.403,442.262c-11.046,0-20,8.954-20,20v3.325c0,11.046,8.954,20,20,20s20-8.954,20-20v-3.325 C765.403,451.216,756.449,442.262,745.403,442.262z"/> <path d="M745.403,506.413c-11.046,0-20,8.954-20,20v210.161H473.561v-76.1c0-40.562-32.999-73.561-73.561-73.561 s-73.56,32.999-73.56,73.561v76.1H74.597V403.165l107.176-109.652h78.65l-70.649,81.502h-42.337c-11.046,0-20,8.954-20,20 s8.954,20,20,20h51.469c5.8,0,11.313-2.518,15.111-6.9L400,193.563l185.983,214.552c3.953,4.561,9.517,6.897,15.112,6.899v0.001 h144.308c8.048,0,15.312-4.823,18.434-12.241c3.122-7.417,1.494-15.983-4.131-21.738l-118.76-121.502 c-3.763-3.85-8.919-6.021-14.303-6.021h-121.74L420,155.567v-15.534c2.115,0.278,4.197,0.408,6.243,0.408 c11.938-0.001,22.643-4.312,31.697-7.959c13.404-5.399,24.98-10.062,42.537-5.89c5.952,1.415,12.224,0.027,17.023-3.766 c4.801-3.793,7.601-9.575,7.601-15.692V51.849c0-5.342-2.138-10.463-5.936-14.22c-10.227-10.115-22.363-14.868-36.073-14.128 c-10.297,0.556-19.784,4.095-28.96,7.518c-15.426,5.755-28.747,10.725-45.57,2.755c-0.004,0.005-0.008,0.01-0.012,0.015 c-2.596-1.231-5.487-1.94-8.551-1.94c-11.046,0-20,8.954-20,20v103.718l-84.903,97.946H173.354c-5.384,0-10.54,2.17-14.303,6.021 L40.294,381.035c-3.653,3.736-5.697,8.754-5.697,13.979v361.56c0,11.045,8.954,20,20,20H346.44c11.046,0,20-8.955,20-20v-96.1 c0-18.506,15.055-33.561,33.56-33.561s33.561,15.055,33.561,33.561v96.1c0,11.045,8.954,20,20,20h291.843c11.046,0,20-8.955,20-20 V526.413C765.403,515.367,756.449,506.413,745.403,506.413z M618.225,293.513l79.663,81.502h-87.661l-70.649-81.502H618.225z M468.114,68.496c9.068-3.383,13.926-4.862,16.987-5.025v21.547c-17.526,0.461-31.228,5.979-42.106,10.361 c-12.711,5.12-17.093,6.879-22.995,2.796V77.672C439.488,79.173,455.937,73.039,468.114,68.496z"/> </g> </g>
</svg>